<svg xmlns="http://www.w3.org/2000/svg" viewBox="0 0 512 512">
	<rect width="512" height="512" rx="110" fill="#2a7a2d" />
	<path d="M256 90 C162 90 108 176 108 272 C108 368 168 430 256 430 C344 430 404 368 404 272 C404 176 350 90 256 90Z"
		fill="#b9ddb9" />
	<line x1="256" y1="115" x2="256" y2="415" stroke="#2a7a2d" stroke-width="18" stroke-linecap="round" />
	<path d="M256 195 C224 170 178 178 160 205" stroke="#2a7a2d" stroke-width="12" stroke-linecap="round" fill="none" />
	<path d="M256 195 C288 170 334 178 352 205" stroke="#2a7a2d" stroke-width="12" stroke-linecap="round" fill="none" />
	<path d="M256 268 C224 243 178 251 160 278" stroke="#2a7a2d" stroke-width="12" stroke-linecap="round" fill="none" />
	<path d="M256 268 C288 243 334 251 352 278" stroke="#2a7a2d" stroke-width="12" stroke-linecap="round" fill="none" />
	<path d="M256 341 C224 316 178 324 160 351" stroke="#2a7a2d" stroke-width="12" stroke-linecap="round" fill="none" />
	<path d="M256 341 C288 316 334 324 352 351" stroke="#2a7a2d" stroke-width="12" stroke-linecap="round" fill="none" />
</svg>
